# xmcd CD database file
#
# Track frame offsets:
#	150
#	12160
#	26468
#	40743
#	52480
#	66180
#	79758
#	93980
#	108603
#	122220
#	135328
#	148558
#	161373
#	176863
#	188853
#	202583
#	215180
#	230263
#	241225
#	255045
#	268023
#	280715
#	294043
#	308488
#
# Disc length: 4300 seconds
#
# Revision: 4
# Processed by: cddbd v1.5.2PL0 Copyright (c) Steve Scherf et al.
# Submitted via: CDex 1.51
#
DISCID=4710ca18
DTITLE=Duke Ellington and His Orchestra - Vol. 057 - 1941-1951
DYEAR=1990
DGENRE=Jazz
TTITLE0=The 'C' Jam Blues
TTITLE1=Perdido
TTITLE2=Sultry Sunset
TTITLE3=Blue Skies
TTITLE4=It Don't Mean A Thing
TTITLE5=Magenta Haze
TTITLE6=Things Ain't What They Used To Be
TTITLE7=I'm Beginning To See The Light
TTITLE8=Moon Mist
TTITLE9=Chelsea Bridge
TTITLE10=Jump For Joy
TTITLE11=Main Stem
TTITLE12=What Am I Here For?
TTITLE13=Johnny Come Lately
TTITLE14=Do Nothin' Till You Hear From Me
TTITLE15=Snibor
TTITLE16=On A Turquoise Cloud
TTITLE17=Park At 106th
TTITLE18=In A Sentimental Mood
TTITLE19=Black And Tan Fantasy
TTITLE20=Caravan
TTITLE21=Creole Love Call
TTITLE22=Great Times
TTITLE23=Brown Betty
EXTD=YEAR: 1990
EXTT0=
EXTT1=
EXTT2=
EXTT3=
EXTT4=
EXTT5=
EXTT6=
EXTT7=
EXTT8=
EXTT9=
EXTT10=
EXTT11=
EXTT12=
EXTT13=
EXTT14=
EXTT15=
EXTT16=
EXTT17=
EXTT18=
EXTT19=
EXTT20=
EXTT21=
EXTT22=
EXTT23=
PLAYORDER=
